<svg width="107" height="21" viewBox="0 0 107 21" fill="none" xmlns="http://www.w3.org/2000/svg">
<path d="M10.1679 20.144C8.22393 20.144 6.50793 19.724 5.01993 18.884C3.53193 18.02 2.35593 16.844 1.49193 15.356C0.651934 13.844 0.231934 12.116 0.231934 10.172C0.231934 8.20399 0.651934 6.47599 1.49193 4.98799C2.35593 3.47599 3.53193 2.29999 5.01993 1.45999C6.50793 0.595992 8.22393 0.163992 10.1679 0.163992C12.0879 0.163992 13.7919 0.595992 15.2799 1.45999C16.7679 2.29999 17.9319 3.47599 18.7719 4.98799C19.6359 6.47599 20.0679 8.20399 20.0679 10.172C20.0679 12.116 19.6479 13.844 18.8079 15.356C17.9679 16.844 16.8039 18.02 15.3159 18.884C13.8279 19.724 12.1119 20.144 10.1679 20.144ZM10.1679 16.904C11.4159 16.904 12.5199 16.616 13.4799 16.04C14.4399 15.464 15.1839 14.672 15.7119 13.664C16.2639 12.656 16.5399 11.492 16.5399 10.172C16.5399 8.85199 16.2639 7.68799 15.7119 6.67999C15.1839 5.64799 14.4399 4.84399 13.4799 4.26799C12.5199 3.69199 11.4159 3.40399 10.1679 3.40399C8.91993 3.40399 7.81593 3.69199 6.85593 4.26799C5.89593 4.84399 5.13993 5.64799 4.58793 6.67999C4.03593 7.68799 3.75993 8.85199 3.75993 10.172C3.75993 11.492 4.03593 12.656 4.58793 13.664C5.13993 14.672 5.89593 15.464 6.85593 16.04C7.81593 16.616 8.91993 16.904 10.1679 16.904Z" fill="#000585"/>
<path d="M49.5809 20.036C49.0529 20.036 48.6089 19.868 48.2489 19.532C47.9129 19.172 47.7449 18.728 47.7449 18.2V7.90399C47.7449 6.39199 47.3729 5.27599 46.6289 4.55599C45.8849 3.81199 44.9129 3.43999 43.7129 3.43999C42.4649 3.43999 41.4329 3.87199 40.6169 4.73599C39.8249 5.59999 39.4289 6.70399 39.4289 8.04799H36.4409C36.4409 6.48799 36.7769 5.11999 37.4489 3.94399C38.1209 2.74399 39.0569 1.80799 40.2569 1.13599C41.4809 0.46399 42.8729 0.127991 44.4329 0.127991C45.8009 0.127991 47.0129 0.427991 48.0689 1.02799C49.1249 1.62799 49.9409 2.51599 50.5169 3.69199C51.1169 4.84399 51.4169 6.24799 51.4169 7.90399V18.2C51.4169 18.728 51.2489 19.172 50.9129 19.532C50.5769 19.868 50.1329 20.036 49.5809 20.036ZM25.5689 20.036C25.0409 20.036 24.5969 19.868 24.2369 19.532C23.9009 19.172 23.7329 18.728 23.7329 18.2V2.17999C23.7329 1.62799 23.9009 1.18399 24.2369 0.847992C24.5969 0.511992 25.0409 0.343992 25.5689 0.343992C26.1209 0.343992 26.5649 0.511992 26.9009 0.847992C27.2369 1.18399 27.4049 1.62799 27.4049 2.17999V18.2C27.4049 18.728 27.2369 19.172 26.9009 19.532C26.5649 19.868 26.1209 20.036 25.5689 20.036ZM37.5929 20.036C37.0649 20.036 36.6209 19.868 36.2609 19.532C35.9249 19.172 35.7569 18.728 35.7569 18.2V7.90399C35.7569 6.39199 35.3849 5.27599 34.6409 4.55599C33.8969 3.81199 32.9249 3.43999 31.7249 3.43999C30.4769 3.43999 29.4449 3.87199 28.6289 4.73599C27.8129 5.59999 27.4049 6.70399 27.4049 8.04799H25.1369C25.1369 6.48799 25.4489 5.11999 26.0729 3.94399C26.6969 2.74399 27.5609 1.80799 28.6649 1.13599C29.7689 0.46399 31.0289 0.127991 32.4449 0.127991C33.8129 0.127991 35.0249 0.427991 36.0809 1.02799C37.1369 1.62799 37.9529 2.51599 38.5289 3.69199C39.1289 4.84399 39.4289 6.24799 39.4289 7.90399V18.2C39.4289 18.728 39.2609 19.172 38.9249 19.532C38.5889 19.868 38.1449 20.036 37.5929 20.036Z" fill="#000585"/>
<path d="M81.5661 20.036C81.0381 20.036 80.5941 19.868 80.2341 19.532C79.8981 19.172 79.7301 18.728 79.7301 18.2V7.90399C79.7301 6.39199 79.3581 5.27599 78.6141 4.55599C77.8701 3.81199 76.8981 3.43999 75.6981 3.43999C74.4501 3.43999 73.4181 3.87199 72.6021 4.73599C71.8101 5.59999 71.4141 6.70399 71.4141 8.04799H68.4261C68.4261 6.48799 68.7621 5.11999 69.4341 3.94399C70.1061 2.74399 71.0421 1.80799 72.2421 1.13599C73.4661 0.46399 74.8581 0.127991 76.4181 0.127991C77.7861 0.127991 78.9981 0.427991 80.0541 1.02799C81.1101 1.62799 81.9261 2.51599 82.5021 3.69199C83.1021 4.84399 83.4021 6.24799 83.4021 7.90399V18.2C83.4021 18.728 83.2341 19.172 82.8981 19.532C82.5621 19.868 82.1181 20.036 81.5661 20.036ZM57.5541 20.036C57.0261 20.036 56.5821 19.868 56.2221 19.532C55.8861 19.172 55.7181 18.728 55.7181 18.2V2.17999C55.7181 1.62799 55.8861 1.18399 56.2221 0.847992C56.5821 0.511992 57.0261 0.343992 57.5541 0.343992C58.1061 0.343992 58.5501 0.511992 58.8861 0.847992C59.2221 1.18399 59.3901 1.62799 59.3901 2.17999V18.2C59.3901 18.728 59.2221 19.172 58.8861 19.532C58.5501 19.868 58.1061 20.036 57.5541 20.036ZM69.5781 20.036C69.0501 20.036 68.6061 19.868 68.2461 19.532C67.9101 19.172 67.7421 18.728 67.7421 18.2V7.90399C67.7421 6.39199 67.3701 5.27599 66.6261 4.55599C65.8821 3.81199 64.9101 3.43999 63.7101 3.43999C62.4621 3.43999 61.4301 3.87199 60.6141 4.73599C59.7981 5.59999 59.3901 6.70399 59.3901 8.04799H57.1221C57.1221 6.48799 57.4341 5.11999 58.0581 3.94399C58.6821 2.74399 59.5461 1.80799 60.6501 1.13599C61.7541 0.46399 63.0141 0.127991 64.4301 0.127991C65.7981 0.127991 67.0101 0.427991 68.0661 1.02799C69.1221 1.62799 69.9381 2.51599 70.5141 3.69199C71.1141 4.84399 71.4141 6.24799 71.4141 7.90399V18.2C71.4141 18.728 71.2461 19.172 70.9101 19.532C70.5741 19.868 70.1301 20.036 69.5781 20.036Z" fill="#000585"/>
<path d="M96.6312 20.144C94.6872 20.144 92.9712 19.724 91.4832 18.884C89.9952 18.02 88.8192 16.844 87.9552 15.356C87.1152 13.844 86.6952 12.116 86.6952 10.172C86.6952 8.20399 87.1152 6.47599 87.9552 4.98799C88.8192 3.47599 89.9952 2.29999 91.4832 1.45999C92.9712 0.595992 94.6872 0.163992 96.6312 0.163992C98.5512 0.163992 100.255 0.595992 101.743 1.45999C103.231 2.29999 104.395 3.47599 105.235 4.98799C106.099 6.47599 106.531 8.20399 106.531 10.172C106.531 12.116 106.111 13.844 105.271 15.356C104.431 16.844 103.267 18.02 101.779 18.884C100.291 19.724 98.5752 20.144 96.6312 20.144ZM96.6312 16.904C97.8792 16.904 98.9832 16.616 99.9432 16.04C100.903 15.464 101.647 14.672 102.175 13.664C102.727 12.656 103.003 11.492 103.003 10.172C103.003 8.85199 102.727 7.68799 102.175 6.67999C101.647 5.64799 100.903 4.84399 99.9432 4.26799C98.9832 3.69199 97.8792 3.40399 96.6312 3.40399C95.3832 3.40399 94.2792 3.69199 93.3192 4.26799C92.3592 4.84399 91.6032 5.64799 91.0512 6.67999C90.4992 7.68799 90.2232 8.85199 90.2232 10.172C90.2232 11.492 90.4992 12.656 91.0512 13.664C91.6032 14.672 92.3592 15.464 93.3192 16.04C94.2792 16.616 95.3832 16.904 96.6312 16.904Z" fill="#000585"/>
</svg>
